# xmcd CD database file
#
# Track frame offsets:
#	150
#	68212
#	137273
#	205748
#
# Disc length: 3643 seconds
#
# Revision: 1
# Processed by: cddbd v1.5.1PL0 Copyright (c) Steve Scherf et al.
# Submitted via: CDex 1.51
#
DISCID=300e3904
DTITLE=Fridrik Karlsson - Magical Treatments
DYEAR=2001
DGENRE=New Age
TTITLE0=Heaven
TTITLE1=Make a Wish
TTITLE2=Eternity
TTITLE3=Starlight
EXTD=YEAR: 2001
EXTT0=
EXTT1=
EXTT2=
EXTT3=
PLAYORDER=
